{
	"asset":{
		"generator":"Khronos glTF Blender I/O v4.2.70",
		"version":"2.0"
	},
	"extensionsUsed":[
		"KHR_materials_specular"
	],
	"scene":0,
	"scenes":[
		{
			"name":"Scene",
			"nodes":[
				0,
				1,
				2
			]
		}
	],
	"nodes":[
		{
			"mesh":0,
			"name":"1.5_landscape",
			"scale":[
				0.010000000707805157,
				0.009999999776482582,
				0.009999999776482582
			]
		},
		{
			"mesh":1,
			"name":"Plane",
			"rotation":[
				0.7071068286895752,
				0,
				0,
				0.7071068286895752
			],
			"scale":[
				0.15000000596046448,
				1,
				0.10000000149011612
			],
			"translation":[
				0,
				0,
				0.0010000000474974513
			]
		},
		{
			"mesh":2,
			"name":"1.5_landscape_framed",
			"scale":[
				0.009999999776482582,
				0.009999999776482582,
				0.009999999776482582
			]
		}
	],
	"materials":[
		{
			"doubleSided":true,
			"extensions":{
				"KHR_materials_specular":{
					"specularFactor":0
				}
			},
			"name":"Paint_-_Enamel_Glossy_(1)",
			"pbrMetallicRoughness":{
				"baseColorFactor":[
					0,
					0,
					0,
					1
				],
				"metallicFactor":0
			}
		},
		{
			"alphaMode":"BLEND",
			"doubleSided":true,
			"name":"Material.001",
			"pbrMetallicRoughness":{
				"baseColorFactor":[
					1,
					1,
					1,
					0.9900000095367432
				],
				"baseColorTexture":{
					"index":0
				},
				"metallicFactor":0,
				"roughnessFactor":0.5
			}
		},
		{
			"alphaMode":"BLEND",
			"doubleSided":true,
			"extensions":{
				"KHR_materials_specular":{
					"specularFactor":0
				}
			},
			"name":"Paint_-_Enamel_Glossy",
			"pbrMetallicRoughness":{
				"baseColorFactor":[
					0.7764710187911987,
					0.07451000064611435,
					0.07451000064611435,
					0.9900000095367432
				],
				"metallicFactor":0
			}
		},
		{
			"doubleSided":true,
			"extensions":{
				"KHR_materials_specular":{
					"specularFactor":0
				}
			},
			"name":"Paint_-_Enamel_Glossy_(1).001",
			"pbrMetallicRoughness":{
				"baseColorFactor":[
					0,
					0.443136990070343,
					0.9803919792175293,
					1
				],
				"metallicFactor":0
			}
		}
	],
	"meshes":[
		{
			"name":"1.5_landscape",
			"primitives":[
				{
					"attributes":{
						"POSITION":0,
						"NORMAL":1,
						"TEXCOORD_0":2
					},
					"indices":3,
					"material":0
				}
			]
		},
		{
			"name":"Plane.001",
			"primitives":[
				{
					"attributes":{
						"POSITION":4,
						"NORMAL":5,
						"TEXCOORD_0":6
					},
					"indices":7,
					"material":1
				}
			]
		},
		{
			"name":"1.5_landscape_framed",
			"primitives":[
				{
					"attributes":{
						"POSITION":8,
						"NORMAL":9,
						"TEXCOORD_0":10
					},
					"indices":11,
					"material":2
				},
				{
					"attributes":{
						"POSITION":12,
						"NORMAL":13,
						"TEXCOORD_0":14
					},
					"indices":3,
					"material":3
				}
			]
		}
	],
	"textures":[
		{
			"sampler":0,
			"source":0
		}
	],
	"images":[
		{
			"mimeType":"image/jpeg",
			"name":"1500-x-1000",
			"uri":"1500-x-1000.jpg"
		}
	],
	"accessors":[
		{
			"bufferView":0,
			"componentType":5126,
			"count":52,
			"max":[
				15,
				10,
				0
			],
			"min":[
				-15,
				-10,
				-2
			],
			"type":"VEC3"
		},
		{
			"bufferView":1,
			"componentType":5126,
			"count":52,
			"type":"VEC3"
		},
		{
			"bufferView":2,
			"componentType":5126,
			"count":52,
			"type":"VEC2"
		},
		{
			"bufferView":3,
			"componentType":5123,
			"count":132,
			"type":"SCALAR"
		},
		{
			"bufferView":4,
			"componentType":5126,
			"count":4,
			"max":[
				1,
				0,
				1
			],
			"min":[
				-1,
				0,
				-1
			],
			"type":"VEC3"
		},
		{
			"bufferView":5,
			"componentType":5126,
			"count":4,
			"type":"VEC3"
		},
		{
			"bufferView":6,
			"componentType":5126,
			"count":4,
			"type":"VEC2"
		},
		{
			"bufferView":7,
			"componentType":5123,
			"count":6,
			"type":"SCALAR"
		},
		{
			"bufferView":8,
			"componentType":5126,
			"count":112,
			"max":[
				17,
				12,
				0.5
			],
			"min":[
				-17,
				-12,
				-2
			],
			"type":"VEC3"
		},
		{
			"bufferView":9,
			"componentType":5126,
			"count":112,
			"type":"VEC3"
		},
		{
			"bufferView":10,
			"componentType":5126,
			"count":112,
			"type":"VEC2"
		},
		{
			"bufferView":11,
			"componentType":5123,
			"count":288,
			"type":"SCALAR"
		},
		{
			"bufferView":12,
			"componentType":5126,
			"count":52,
			"max":[
				15,
				10,
				0
			],
			"min":[
				-15,
				-10,
				-2
			],
			"type":"VEC3"
		},
		{
			"bufferView":13,
			"componentType":5126,
			"count":52,
			"type":"VEC3"
		},
		{
			"bufferView":14,
			"componentType":5126,
			"count":52,
			"type":"VEC2"
		}
	],
	"bufferViews":[
		{
			"buffer":0,
			"byteLength":624,
			"byteOffset":0,
			"target":34962
		},
		{
			"buffer":0,
			"byteLength":624,
			"byteOffset":624,
			"target":34962
		},
		{
			"buffer":0,
			"byteLength":416,
			"byteOffset":1248,
			"target":34962
		},
		{
			"buffer":0,
			"byteLength":264,
			"byteOffset":1664,
			"target":34963
		},
		{
			"buffer":0,
			"byteLength":48,
			"byteOffset":1928,
			"target":34962
		},
		{
			"buffer":0,
			"byteLength":48,
			"byteOffset":1976,
			"target":34962
		},
		{
			"buffer":0,
			"byteLength":32,
			"byteOffset":2024,
			"target":34962
		},
		{
			"buffer":0,
			"byteLength":12,
			"byteOffset":2056,
			"target":34963
		},
		{
			"buffer":0,
			"byteLength":1344,
			"byteOffset":2068,
			"target":34962
		},
		{
			"buffer":0,
			"byteLength":1344,
			"byteOffset":3412,
			"target":34962
		},
		{
			"buffer":0,
			"byteLength":896,
			"byteOffset":4756,
			"target":34962
		},
		{
			"buffer":0,
			"byteLength":576,
			"byteOffset":5652,
			"target":34963
		},
		{
			"buffer":0,
			"byteLength":624,
			"byteOffset":6228,
			"target":34962
		},
		{
			"buffer":0,
			"byteLength":624,
			"byteOffset":6852,
			"target":34962
		},
		{
			"buffer":0,
			"byteLength":416,
			"byteOffset":7476,
			"target":34962
		}
	],
	"samplers":[
		{
			"magFilter":9729,
			"minFilter":9987,
			"wrapS":33071,
			"wrapT":33071
		}
	],
	"buffers":[
		{
			"byteLength":7892,
			"uri":"1.5_landscape_framed.bin"
		}
	]
}
